<svg id="Layer_1" data-name="Layer 1" xmlns="http://www.w3.org/2000/svg" viewBox="0 0 575.47 152.424"><defs><style>.cls-1{fill:#f4f5f0;}</style></defs><path class="cls-1" d="M216.653,51.555A25.26,25.26,0,0,1,226.3,61.4a29.869,29.869,0,0,1,3.565,14.815A29.861,29.861,0,0,1,226.3,91.026a25.26,25.26,0,0,1-9.642,9.843,26.8,26.8,0,0,1-13.508,3.465q-9.543,0-15.165-5.726v24.3H168.9V48.994h18.179v5.424q5.322-6.327,16.069-6.328A26.8,26.8,0,0,1,216.653,51.555ZM207.363,85.7q3.213-3.463,3.214-9.49t-3.214-9.492a11.519,11.519,0,0,0-16.471,0q-3.214,3.466-3.213,9.492t3.213,9.49a11.519,11.519,0,0,0,16.471,0Z"/><path class="cls-1" d="M236.578,40.056a9.36,9.36,0,0,1-3.213-7.231,9.365,9.365,0,0,1,3.213-7.231,12.085,12.085,0,0,1,8.437-2.913,12.493,12.493,0,0,1,8.436,2.762,8.918,8.918,0,0,1,3.214,7.08,9.741,9.741,0,0,1-3.214,7.483,13.582,13.582,0,0,1-16.873.05Zm-1.1,8.938h19.083v54.435H235.473Z"/><path class="cls-1" d="M275.233,100.718a27.3,27.3,0,0,1,0-49.062A35.675,35.675,0,0,1,291.4,48.09a30.9,30.9,0,0,1,15.97,3.968,21.985,21.985,0,0,1,9.541,11l-14.764,7.534q-3.717-7.332-10.847-7.333a11.416,11.416,0,0,0-8.486,3.415q-3.366,3.417-3.365,9.441,0,6.128,3.365,9.591a11.329,11.329,0,0,0,8.486,3.465q7.131,0,10.847-7.331l14.764,7.532a21.969,21.969,0,0,1-9.541,11,30.866,30.866,0,0,1-15.97,3.968A35.269,35.269,0,0,1,275.233,100.718Z"/><path class="cls-1" d="M332.56,100.718A26.9,26.9,0,0,1,317.6,76.112a26.825,26.825,0,0,1,14.914-24.456,36.979,36.979,0,0,1,31.687,0A26.708,26.708,0,0,1,375.142,61.6a27.169,27.169,0,0,1,3.917,14.513,27.428,27.428,0,0,1-3.917,14.563A26.943,26.943,0,0,1,364.2,100.718a36.405,36.405,0,0,1-31.636,0Zm24-15.015q3.213-3.463,3.214-9.591,0-6.025-3.214-9.441a11.638,11.638,0,0,0-16.471,0q-3.214,3.417-3.213,9.441,0,6.128,3.213,9.591a11.519,11.519,0,0,0,16.471,0Z"/><path class="cls-1" d="M443.4,48.994V93.487q0,15.164-8.235,22.748t-23.7,7.582a60.274,60.274,0,0,1-15.066-1.808,35.593,35.593,0,0,1-11.952-5.322l6.93-13.359a24.383,24.383,0,0,0,8.386,4.27,33.956,33.956,0,0,0,9.994,1.557q7.532,0,11.046-3.315T424.313,96V94.19q-5.526,6.427-16.171,6.427a27.964,27.964,0,0,1-13.357-3.264,24.843,24.843,0,0,1-9.742-9.239,26.151,26.151,0,0,1-3.615-13.809,25.97,25.97,0,0,1,3.615-13.711,24.881,24.881,0,0,1,9.742-9.24,27.987,27.987,0,0,1,13.357-3.264q11.651,0,17.075,7.533V48.994ZM421.15,82.338a11.281,11.281,0,0,0,.049-16.02,12.089,12.089,0,0,0-8.536-3.062,12.272,12.272,0,0,0-8.588,3.062,11.159,11.159,0,0,0,.051,16.02,12.189,12.189,0,0,0,8.537,3.114A12.013,12.013,0,0,0,421.15,82.338Z"/><path class="cls-1" d="M475.16,49.7a28.757,28.757,0,0,1,10.695-1.858V65.012a38.9,38.9,0,0,0-4.318-.3q-6.126,0-9.59,3.313t-3.465,10.146v25.007H449.4V48.743h18.178v6.528A17.758,17.758,0,0,1,475.16,49.7Z"/><path class="cls-1" d="M490.526,39.805a9.366,9.366,0,0,1-3.215-7.232,9.367,9.367,0,0,1,3.215-7.231,12.078,12.078,0,0,1,8.437-2.913,12.492,12.492,0,0,1,8.436,2.763,8.921,8.921,0,0,1,3.214,7.08,9.743,9.743,0,0,1-3.214,7.482,13.584,13.584,0,0,1-16.873.051Zm-1.1,8.938H508.5v54.435H489.422Z"/><path class="cls-1" d="M575.47,28.657v74.521H557.292V97.754q-5.325,6.328-15.969,6.328a27.056,27.056,0,0,1-13.557-3.465,25.032,25.032,0,0,1-9.692-9.892,30.131,30.131,0,0,1-3.566-14.865,29.853,29.853,0,0,1,3.566-14.815,24.768,24.768,0,0,1,9.692-9.791,27.364,27.364,0,0,1,13.557-3.415q9.742,0,15.066,5.624V28.657Zm-41.578,47.2q0,6.127,3.214,9.592a11.4,11.4,0,0,0,16.37,0q3.213-3.465,3.213-9.592,0-6.025-3.163-9.441A10.65,10.65,0,0,0,545.341,63a10.8,10.8,0,0,0-8.235,3.415q-3.216,3.417-3.214,9.441"/><path class="cls-1" d="M132.441,40.888a5.6,5.6,0,0,0-2.784-4.842L69.038.76A5.606,5.606,0,0,0,63.4.76L2.784,36.045A5.6,5.6,0,0,0,0,40.886v70.65a5.6,5.6,0,0,0,2.783,4.842L63.4,151.663a5.6,5.6,0,0,0,5.636,0l60.619-35.284a5.6,5.6,0,0,0,2.783-4.842ZM65.977,131.049,18.61,103.7V49L65.976,21.657l47.368,27.348v54.7Z"/></svg>