<svg id="Layer_1" data-name="Layer 1" xmlns="http://www.w3.org/2000/svg" viewBox="0 0 444.878 512">
  <defs>
    <style>
      .cls-1 {
        fill: #f4f5f0;
      }
    </style>
  </defs><path
    class="cls-1"
    d="M478.114,137.343a18.818,18.818,0,0,0-9.351-16.262L265.14,2.554a18.819,18.819,0,0,0-18.931,0L42.588,121.077a18.818,18.818,0,0,0-9.35,16.263l0,237.317a18.817,18.817,0,0,0,9.35,16.262L246.213,509.445a18.818,18.818,0,0,0,18.932,0l203.62-118.523a18.817,18.817,0,0,0,9.351-16.263ZM254.859,440.2,95.749,348.334l0-183.726L254.856,72.747l159.111,91.864,0,183.726Z"
    transform="translate(-33.238 0)"/></svg>
